<?xml version="1.0" standalone="no"?>
<!DOCTYPE svg PUBLIC "-//W3C//DTD SVG 20010904//EN"
 "http://www.w3.org/TR/2001/REC-SVG-20010904/DTD/svg10.dtd">
<svg version="1.0" xmlns="http://www.w3.org/2000/svg"
 width="649.000000pt" height="110.000000pt" viewBox="0 0 649.000000 110.000000"
 preserveAspectRatio="xMidYMid meet">

<g transform="translate(0.000000,110.000000) scale(0.100000,-0.100000)"
fill="#000000" stroke="none">
<path d="M320 1061 c-273 -84 -402 -480 -255 -779 118 -238 376 -314 568 -167
l44 34 49 -50 48 -49 118 0 118 0 0 505 0 505 -118 0 -118 0 -44 -45 c-24 -25
-48 -45 -52 -45 -4 0 -29 15 -55 34 -27 19 -70 41 -96 50 -49 17 -163 20 -207
7z m298 -277 c20 -8 49 -27 65 -41 l27 -27 0 -162 0 -162 -35 -30 c-57 -51
-137 -65 -213 -38 -61 22 -97 52 -128 110 -23 42 -28 63 -28 121 0 113 55 196
153 231 49 18 114 17 159 -2z"/>
<path d="M2332 1049 c-83 -32 -174 -124 -222 -223 -46 -98 -60 -160 -60 -274
0 -161 53 -296 154 -397 89 -89 138 -110 256 -110 106 0 157 17 221 73 l36 31
48 -49 49 -50 123 0 123 0 0 505 0 505 -123 0 -123 0 -44 -45 c-24 -25 -48
-45 -53 -45 -4 0 -25 14 -46 30 -87 70 -230 91 -339 49z m321 -261 c22 -7 55
-26 73 -44 l34 -31 0 -152 c0 -84 -5 -161 -10 -171 -6 -11 -32 -32 -58 -47
-39 -23 -59 -28 -112 -28 -138 1 -229 97 -230 240 0 169 145 280 303 233z"/>
<path d="M4779 1051 c-91 -29 -157 -71 -226 -145 -196 -208 -192 -509 11 -712
106 -106 220 -154 366 -154 137 0 266 50 364 142 l51 47 -106 106 -106 107
-22 -36 c-44 -71 -150 -110 -236 -86 -205 57 -221 382 -23 464 86 36 208 0
257 -77 l25 -38 105 106 106 106 -60 55 c-63 58 -151 106 -225 123 -71 17
-217 12 -281 -8z"/>
<path d="M5827 1055 c-179 -49 -330 -207 -368 -385 -16 -75 -7 -223 19 -293
42 -116 143 -228 259 -286 138 -69 332 -67 475 5 69 35 179 143 216 212 157
294 5 651 -317 746 -66 19 -215 20 -284 1z m228 -274 c88 -40 141 -138 133
-244 -9 -106 -64 -184 -151 -213 -112 -37 -230 20 -273 132 -26 69 -17 178 21
240 56 90 176 128 270 85z"/>
<path d="M1230 555 l0 -505 150 0 150 0 0 355 0 355 220 0 220 0 0 150 0 150
-122 0 -123 0 -97 -97 -98 -98 0 98 0 97 -150 0 -150 0 0 -505z"/>
<path d="M3280 667 l0 -392 113 -113 112 -112 353 0 352 0 0 505 0 505 -150 0
-150 0 -2 -352 -3 -353 -162 -3 -163 -2 0 355 0 355 -150 0 -150 0 0 -393z"/>
</g>
</svg>
