<?xml version="1.0" standalone="no"?>
<!DOCTYPE svg PUBLIC "-//W3C//DTD SVG 20010904//EN"
 "http://www.w3.org/TR/2001/REC-SVG-20010904/DTD/svg10.dtd">
<svg version="1.0" xmlns="http://www.w3.org/2000/svg"
 width="4097.000000pt" height="1052.000000pt" viewBox="0 0 4097.000000 1052.000000"
 preserveAspectRatio="xMidYMid meet">

<g transform="translate(0.000000,1052.000000) scale(0.100000,-0.100000)"
fill="#000000" stroke="none">
<path d="M0 7080 l0 -3440 1793 0 c1468 0 1824 3 1967 15 1219 99 1930 588
2154 1481 37 145 55 267 67 462 40 603 -148 1106 -546 1461 -141 126 -377 261
-557 321 -38 12 -68 23 -68 25 0 1 41 26 92 56 420 242 706 636 783 1077 45
258 19 588 -66 844 -229 687 -905 1066 -2009 1128 -101 6 -903 10 -1892 10
l-1718 0 0 -3440z m3465 2017 c191 -60 313 -157 384 -308 71 -147 89 -351 46
-509 -54 -200 -214 -358 -435 -428 -126 -40 -162 -42 -927 -42 l-743 0 0 660
0 661 793 -3 792 -3 90 -28z m2 -2458 c131 -18 233 -48 342 -100 187 -91 305
-239 362 -454 31 -115 31 -365 1 -478 -52 -190 -171 -337 -342 -421 -109 -53
-241 -89 -388 -105 -66 -7 -379 -11 -877 -11 l-775 0 0 790 0 790 799 0 c510
0 828 -4 878 -11z"/>
<path d="M17650 10518 c0 -2 487 -1549 1083 -3438 l1083 -3435 1033 0 1033 0
1109 3425 c610 1884 1109 3431 1109 3438 0 9 -192 12 -929 12 -877 0 -930 -1
-935 -17 -3 -10 -305 -1154 -671 -2543 -366 -1389 -668 -2533 -671 -2542 -3
-10 -11 -18 -17 -18 -7 0 -270 980 -687 2560 l-674 2560 -933 0 c-513 0 -933
-1 -933 -2z"/>
<path d="M24540 9895 l0 -625 820 0 820 0 0 625 0 625 -820 0 -820 0 0 -625z"/>
<path d="M32820 9135 l0 -775 -415 0 -415 0 0 -630 0 -630 414 0 415 0 4
-1087 c4 -1165 5 -1176 57 -1435 115 -560 406 -837 985 -938 206 -35 333 -44
660 -45 279 0 718 20 903 41 l42 5 0 601 0 601 -72 -7 c-40 -3 -163 -9 -273
-12 -235 -8 -350 7 -451 56 -103 50 -160 118 -200 240 -17 51 -19 117 -22
1018 l-3 962 511 0 510 0 0 630 0 630 -507 2 -508 3 -3 773 -2 772 -815 0
-815 0 0 -775z"/>
<path d="M8950 8774 c-19 -2 -80 -9 -135 -15 -574 -60 -1125 -321 -1525 -721
-423 -424 -681 -992 -741 -1631 -17 -181 -7 -543 20 -717 176 -1149 986 -1974
2122 -2160 455 -74 960 -36 1384 105 765 255 1338 830 1590 1597 234 714 179
1514 -149 2163 -337 665 -940 1137 -1676 1309 -207 49 -369 67 -620 71 -129 2
-251 1 -270 -1z m416 -1263 c414 -85 681 -432 779 -1011 23 -131 31 -456 15
-606 -64 -627 -339 -1030 -771 -1129 -113 -25 -267 -30 -382 -11 -443 73 -724
434 -813 1042 -22 147 -24 494 -5 634 89 643 367 1014 818 1090 91 15 263 11
359 -9z"/>
<path d="M14465 8769 c-732 -60 -1270 -267 -1607 -616 -231 -239 -381 -591
-413 -970 l-8 -83 765 0 765 0 21 81 c71 265 244 437 512 511 77 21 105 23
290 22 189 0 213 -2 305 -27 216 -57 381 -170 447 -305 32 -65 33 -70 33 -197
-1 -110 -4 -139 -23 -186 -43 -107 -126 -177 -270 -225 -128 -43 -284 -69
-1006 -169 -898 -124 -1356 -286 -1661 -590 -107 -106 -167 -187 -228 -310
-100 -199 -136 -363 -144 -640 -9 -329 36 -556 159 -800 121 -239 361 -464
629 -589 376 -175 867 -227 1378 -145 427 68 799 235 1089 489 55 48 94 76 96
68 2 -7 11 -66 20 -130 16 -113 43 -234 65 -290 l11 -28 821 0 c653 0 820 3
816 13 -89 196 -134 373 -168 662 -9 70 -14 535 -19 1575 -7 1450 -7 1477 -28
1585 -40 206 -94 362 -173 497 -265 453 -751 700 -1544 783 -178 19 -767 28
-930 14z m1104 -2949 c2 -320 -41 -621 -118 -808 -47 -116 -90 -181 -182 -273
-71 -72 -101 -94 -180 -133 -161 -79 -354 -114 -579 -103 -210 11 -364 66
-478 172 -215 199 -215 585 0 791 155 148 325 210 913 330 315 64 491 113 570
157 40 23 40 23 47 2 3 -11 6 -72 7 -135z"/>
<path d="M29030 8773 c-880 -62 -1502 -332 -1808 -786 -92 -136 -144 -259
-184 -438 -20 -91 -23 -130 -23 -309 0 -155 5 -227 18 -295 70 -352 229 -598
511 -787 267 -178 573 -282 1261 -428 379 -80 801 -179 896 -210 198 -65 341
-165 396 -278 25 -52 28 -67 28 -167 0 -103 -2 -114 -32 -177 -95 -201 -348
-331 -674 -345 -533 -24 -896 232 -936 660 l-6 67 -779 0 -779 0 6 -77 c58
-732 423 -1218 1120 -1496 392 -156 995 -238 1528 -209 302 17 519 50 770 116
767 202 1257 654 1387 1278 75 362 42 657 -108 951 -198 391 -575 657 -1092
771 -63 14 -306 61 -540 105 -612 115 -860 181 -1049 276 -209 104 -295 209
-294 360 0 194 148 313 438 355 124 17 408 12 513 -9 188 -39 308 -105 379
-209 51 -76 92 -199 101 -307 l7 -80 755 -3 756 -2 -8 92 c-37 437 -222 815
-520 1066 -415 349 -1031 527 -1798 520 -107 -1 -215 -3 -240 -5z"/>
<path d="M38085 8770 c-943 -76 -1561 -396 -1848 -957 -95 -187 -157 -407
-173 -621 l-7 -92 765 0 764 0 17 71 c50 208 179 373 363 464 136 67 202 79
439 79 196 0 217 -2 309 -27 301 -81 473 -244 484 -460 8 -154 -39 -294 -121
-361 -126 -102 -265 -135 -1002 -236 -797 -109 -1106 -182 -1434 -336 -290
-137 -515 -345 -638 -589 -138 -272 -184 -691 -117 -1046 92 -488 402 -850
887 -1035 409 -156 990 -174 1488 -45 353 91 663 255 876 464 34 34 65 58 68
55 4 -3 12 -50 20 -104 16 -118 28 -173 56 -276 l22 -78 823 0 823 0 -23 53
c-36 79 -85 241 -107 347 -52 253 -52 230 -59 1820 -8 1599 -5 1536 -60 1749
-107 419 -348 713 -745 906 -253 124 -557 201 -949 241 -178 18 -759 27 -921
14z m1093 -3145 c-12 -309 -54 -506 -148 -692 -151 -303 -456 -449 -895 -430
-219 10 -364 61 -483 171 -105 99 -150 198 -159 356 -15 264 99 449 352 570
143 69 290 109 737 200 305 62 445 100 538 148 l55 28 6 -81 c3 -44 2 -165 -3
-270z"/>
<path d="M24540 6140 l0 -2500 820 0 820 0 0 2500 0 2500 -820 0 -820 0 0
-2500z"/>
<path d="M1390 1854 c-14 -2 -65 -9 -115 -15 -331 -39 -638 -171 -854 -365
-127 -114 -260 -327 -321 -514 -60 -184 -72 -282 -77 -632 l-5 -318 13885 0
13884 0 6 293 c7 378 31 543 116 797 87 260 246 517 429 693 l70 67 -13496 -1
c-7424 -1 -13508 -3 -13522 -5z"/>
</g>
</svg>
