<?xml version="1.0" standalone="no"?>
<!DOCTYPE svg PUBLIC "-//W3C//DTD SVG 20010904//EN"
 "http://www.w3.org/TR/2001/REC-SVG-20010904/DTD/svg10.dtd">
<svg version="1.0" xmlns="http://www.w3.org/2000/svg"
 width="512.000000pt" height="512.000000pt" viewBox="0 0 512.000000 512.000000"
 preserveAspectRatio="xMidYMid meet">

<g transform="translate(0.000000,512.000000) scale(0.100000,-0.100000)"
fill="#000000" stroke="none">
<path d="M3055 5113 c-544 -27 -867 -201 -1055 -569 -66 -128 -105 -271 -191
-687 -104 -507 -89 -458 -146 -481 -27 -10 -76 -34 -110 -52 l-61 -34 -37
-153 c-20 -83 -38 -162 -42 -174 -5 -23 -4 -23 96 -23 74 0 101 -3 101 -12 0
-7 -12 -67 -26 -133 -14 -66 -99 -484 -190 -930 -90 -445 -179 -873 -198 -950
-65 -265 -121 -383 -227 -480 l-55 -50 149 -187 c82 -104 153 -188 158 -188
13 0 91 53 151 102 132 109 250 320 333 595 25 81 465 2193 465 2230 0 2 141
3 314 3 291 0 315 1 320 18 3 9 23 100 46 202 22 102 42 195 45 208 l5 22
-309 0 c-170 0 -312 4 -315 8 -6 9 125 654 155 761 43 160 145 303 258 364 27
15 85 37 128 49 71 19 113 21 441 25 318 5 362 7 362 21 0 8 3 13 6 10 3 -3
-110 -584 -250 -1289 -363 -1826 -337 -1684 -337 -1818 -1 -167 25 -270 90
-365 96 -140 254 -208 481 -208 164 0 437 49 558 99 l33 14 -33 44 c-18 24
-80 107 -138 184 l-105 141 -49 -6 c-27 -4 -89 -6 -136 -6 -138 0 -180 32
-180 138 0 55 136 742 529 2664 39 190 71 359 71 377 0 22 -13 48 -42 85 -122
156 -329 357 -421 408 -36 21 -40 21 -27 5 12 -16 10 -15 -14 3 -28 22 -34 22
-285 20 -141 -1 -283 -3 -316 -5z m632 -65 c-3 -8 -6 -5 -6 6 -1 11 2 17 5 13
3 -3 4 -12 1 -19z m0 -125 c-3 -10 -5 -4 -5 12 0 17 2 24 5 18 2 -7 2 -21 0
-30z m-10 -55 c-3 -8 -6 -5 -6 6 -1 11 2 17 5 13 3 -3 4 -12 1 -19z m-10 -60
c-3 -7 -5 -2 -5 12 0 14 2 19 5 13 2 -7 2 -19 0 -25z m-10 -50 c-3 -7 -5 -2
-5 12 0 14 2 19 5 13 2 -7 2 -19 0 -25z m-10 -50 c-3 -8 -6 -5 -6 6 -1 11 2
17 5 13 3 -3 4 -12 1 -19z m-10 -60 c-3 -7 -5 -2 -5 12 0 14 2 19 5 13 2 -7 2
-19 0 -25z"/>
</g>
</svg>
