<?xml version="1.0" standalone="no"?>
<!DOCTYPE svg PUBLIC "-//W3C//DTD SVG 20010904//EN"
 "http://www.w3.org/TR/2001/REC-SVG-20010904/DTD/svg10.dtd">
<svg version="1.0" xmlns="http://www.w3.org/2000/svg"
 width="222.000000pt" height="227.000000pt" viewBox="0 0 222.000000 227.000000"
 preserveAspectRatio="xMidYMid meet">

<g transform="translate(0.000000,227.000000) scale(0.100000,-0.100000)"
fill="#000000" stroke="none">
<path d="M1034 2256 c-158 -40 -274 -184 -274 -339 0 -61 1 -62 38 -84 l39
-22 -8 47 c-19 126 48 250 171 313 62 32 175 33 241 2 136 -62 207 -218 164
-358 -24 -75 -95 -154 -166 -185 l-52 -22 41 -23 40 -23 58 29 c44 23 71 29
118 29 57 0 62 2 78 29 9 16 14 32 10 35 -3 3 -27 6 -54 6 -26 0 -48 2 -48 4
0 2 11 28 25 58 34 75 42 157 21 238 -19 74 -69 156 -118 194 -91 69 -222 98
-324 72z"/>
<path d="M589 1632 c-121 -77 -187 -231 -158 -370 29 -144 122 -246 258 -286
102 -30 210 -14 304 46 42 27 106 96 121 131 3 8 9 5 17 -8 34 -54 114 -124
172 -151 53 -25 75 -29 152 -29 82 0 97 3 156 32 79 39 140 102 177 181 23 49
27 70 27 147 0 83 -3 96 -35 160 -19 38 -40 71 -46 73 -6 1 -17 -11 -24 -27
-11 -27 -9 -36 11 -78 35 -71 34 -189 -3 -258 -91 -172 -311 -218 -452 -94
-67 60 -97 115 -105 199 -6 70 -7 71 -47 95 l-42 25 10 -43 c27 -120 -50 -265
-171 -320 -64 -30 -178 -30 -242 0 -150 68 -217 250 -146 396 33 66 101 130
160 150 l42 14 -35 21 c-45 28 -47 28 -101 -6z"/>
<path d="M60 508 c0 -96 5 -191 11 -213 25 -89 79 -127 181 -127 81 0 126 25
158 88 24 46 25 60 28 237 l4 187 -30 0 -30 0 -4 -177 c-3 -136 -8 -187 -20
-215 -28 -62 -104 -86 -169 -52 -51 26 -59 62 -59 264 l0 180 -35 0 -35 0 0
-172z"/>
<path d="M580 424 l0 -255 33 3 32 3 3 118 3 117 89 0 c89 0 90 0 90 25 0 25
-1 25 -90 25 l-90 0 0 85 0 85 95 0 c95 0 95 0 95 25 l0 25 -130 0 -130 0 0
-256z"/>
<path d="M975 438 c-54 -134 -99 -249 -102 -256 -4 -8 6 -12 30 -12 33 0 35 2
59 68 l25 67 123 0 122 0 25 -67 c24 -66 26 -68 59 -68 19 0 34 3 34 7 0 3
-44 118 -97 255 l-98 248 -41 0 -42 0 -97 -242z m183 65 c22 -60 43 -116 47
-125 7 -16 -2 -18 -95 -18 -56 0 -100 4 -98 8 2 5 23 61 48 125 25 64 48 117
51 117 4 0 25 -48 47 -107z"/>
<path d="M1418 424 l3 -257 97 5 c160 9 212 45 212 145 0 49 -4 58 -31 84 -17
16 -37 29 -45 29 -23 0 -15 14 19 35 55 35 62 121 13 170 -32 32 -86 45 -186
45 l-85 0 3 -256z m207 176 c16 -15 25 -34 25 -55 0 -50 -38 -78 -110 -83
l-60 -4 0 87 0 87 60 -4 c45 -3 66 -10 85 -28z m-6 -205 c57 -29 58 -121 1
-150 -16 -8 -54 -15 -85 -15 l-55 0 0 90 0 90 55 0 c31 0 69 -7 84 -15z"/>
<path d="M1972 661 c-61 -21 -105 -59 -135 -116 -30 -57 -30 -183 0 -241 27
-51 80 -98 130 -115 42 -14 163 -18 206 -6 22 6 27 13 27 38 0 26 -3 30 -17
24 -10 -5 -48 -10 -85 -13 -55 -3 -75 0 -113 18 -113 55 -139 229 -46 321 56
56 130 70 237 43 23 -6 25 -4 22 22 -2 20 -10 30 -28 35 -48 13 -145 8 -198
-10z"/>
</g>
</svg>
