<?xml version="1.0" standalone="no"?>
<!DOCTYPE svg PUBLIC "-//W3C//DTD SVG 20010904//EN"
 "http://www.w3.org/TR/2001/REC-SVG-20010904/DTD/svg10.dtd">
<svg version="1.0" xmlns="http://www.w3.org/2000/svg"
 width="800.000000pt" height="600.000000pt" viewBox="0 0 800.000000 600.000000"
 preserveAspectRatio="xMidYMid meet">

<g transform="translate(0.000000,600.000000) scale(0.100000,-0.100000)"
fill="#000000" stroke="none">
<path d="M360 3497 c0 -1155 1 -1196 20 -1271 64 -253 275 -458 526 -511 102
-22 1396 -22 1499 0 150 31 319 141 411 267 l38 51 15 -23 c94 -141 246 -247
415 -290 75 -19 111 -20 766 -20 655 0 691 1 766 20 205 52 371 187 463 375
58 121 63 155 68 460 l4 280 -615 615 -616 615 -70 -70 -70 -70 585 -585 585
-585 0 -196 c0 -108 -5 -221 -10 -250 -35 -183 -187 -347 -365 -394 -85 -22
-1361 -22 -1444 0 -195 51 -340 212 -372 411 l-12 75 -96 -3 c-94 -3 -96 -3
-99 -28 -22 -221 -171 -401 -377 -455 -88 -23 -1352 -23 -1440 0 -170 45 -307
179 -359 354 -14 49 -16 171 -16 1138 l0 1083 500 0 500 0 0 -1045 0 -1045
100 0 100 0 0 1045 0 1045 495 0 495 0 0 100 0 100 -1195 0 -1195 0 0 -1193z"/>
<path d="M3284 4670 c-194 -51 -369 -194 -458 -374 -64 -129 -69 -161 -73
-466 l-4 -275 615 -615 616 -615 72 73 73 72 -588 588 -587 587 0 190 c0 222
12 293 66 395 41 79 128 166 202 204 113 57 99 56 832 56 733 0 720 1 831 -56
60 -30 149 -112 188 -172 38 -59 67 -142 76 -216 l7 -56 99 0 99 0 0 38 c0 52
25 135 63 205 45 86 124 160 225 210 l85 42 691 3 c460 2 707 -1 740 -8 173
-37 335 -197 375 -370 7 -28 11 -262 11 -627 l0 -583 -495 0 -495 0 0 545 0
545 -100 0 -100 0 0 -1045 0 -1045 -500 0 -500 0 0 -100 0 -100 600 0 600 0 0
500 0 500 595 0 596 0 -3 723 -3 722 -27 73 c-75 207 -241 371 -442 439 l-81
28 -740 0 -740 0 -80 -28 c-138 -49 -260 -138 -340 -248 l-37 -49 -45 61 c-87
115 -234 212 -379 249 -73 19 -112 20 -773 19 -647 0 -701 -1 -767 -19z"/>
</g>
</svg>
